<svg width="189" height="20" viewBox="0 0 189 20" fill="none" xmlns="http://www.w3.org/2000/svg">
<path d="M5.95767 18.7363C7.55108 19.5879 9.36427 20 11.3972 20C13.1555 20 14.7214 19.6978 16.15 19.0659C17.5511 18.4615 18.7324 17.5549 19.6665 16.3736L16.2049 13.2418C14.9412 14.7527 13.4302 15.4945 11.672 15.4945C10.628 15.4945 9.69394 15.2747 8.86977 14.8077C8.04559 14.3681 7.41372 13.7088 6.97416 12.8846C6.5346 12.0604 6.31482 11.0989 6.31482 10C6.31482 8.92857 6.5346 7.96703 6.97416 7.14286C7.41372 6.31868 8.04559 5.65934 8.86977 5.19231C9.69394 4.75275 10.628 4.5055 11.672 4.5055C13.4302 4.5055 14.9412 5.27473 16.2049 6.75824L19.6665 3.62637C18.7324 2.47253 17.5511 1.56593 16.15 0.934067C14.7214 0.329671 13.1555 0 11.3972 0C9.36427 0 7.55108 0.439561 5.95767 1.29121C4.36426 2.14286 3.10053 3.32418 2.19394 4.83517C1.25988 6.37363 0.820312 8.07692 0.820312 10C0.820312 11.9231 1.25988 13.6538 2.19394 15.1648C3.10053 16.7033 4.36426 17.8846 5.95767 18.7363Z" fill="#3E8BFF"/>
<path d="M28.2958 18.7088C29.9167 19.5879 31.7574 20 33.7903 20C35.8233 20 37.6365 19.5879 39.2574 18.7088C40.8782 17.8571 42.142 16.6758 43.076 15.1374C44.0101 13.6264 44.4771 11.9231 44.4771 10C44.4771 8.1044 44.0101 6.4011 43.076 4.86264C42.142 3.35165 40.8782 2.17033 39.2574 1.29121C37.6365 0.439561 35.8233 0 33.7903 0C31.7574 0 29.9167 0.439561 28.2958 1.29121C26.6749 2.17033 25.4112 3.35165 24.4771 4.86264C23.5431 6.4011 23.1035 8.1044 23.1035 10C23.1035 11.9231 23.5431 13.6264 24.4771 15.1374C25.4112 16.6758 26.6749 17.8571 28.2958 18.7088ZM36.4277 14.8077C35.631 15.2747 34.7519 15.4945 33.7903 15.4945C32.8013 15.4945 31.9222 15.2747 31.153 14.8077C30.3563 14.3681 29.7244 13.7088 29.2848 12.8846C28.8178 12.0604 28.598 11.0989 28.598 10C28.598 8.92857 28.8178 7.96703 29.2848 7.14286C29.7244 6.31868 30.3563 5.65934 31.153 5.19231C31.9222 4.75275 32.8013 4.5055 33.7903 4.5055C34.7519 4.5055 35.631 4.75275 36.4277 5.19231C37.1969 5.65934 37.8288 6.31868 38.2958 7.14286C38.7354 7.96703 38.9826 8.92857 38.9826 10C38.9826 11.0989 38.7354 12.0604 38.2958 12.8846C37.8288 13.7088 37.1969 14.3681 36.4277 14.8077Z" fill="#3E8BFF"/>
<path d="M66.404 4.91758C65.4975 3.48901 64.2337 2.36264 62.6128 1.56593C60.9645 0.796701 59.0964 0.384613 57.0084 0.384613H47.915V4.72527H56.7887C58.437 4.72527 59.7557 5.19231 60.7447 6.12637C61.7337 7.08791 62.2557 8.37912 62.2557 10C62.2557 11.6483 61.7337 12.9396 60.7447 13.8736C59.7557 14.8077 58.437 15.2747 56.7887 15.2747H53.3546V10.1648H47.915V19.6154H57.0084C59.0964 19.6154 60.9645 19.2308 62.6128 18.4341C64.2337 17.6648 65.4975 16.5385 66.404 15.0824C67.2832 13.6538 67.7502 11.9505 67.7502 10C67.7502 8.07692 67.2832 6.37362 66.404 4.91758Z" fill="#3E8BFF"/>
<path d="M86.4348 19.6154H71.1875V15.4121V12.1703L76.5194 15.4121H86.4348V19.6154ZM86.4348 12.1703H76.5194V15.4121L71.1875 12.1703V8.1044V4.58791L76.5194 8.1044H81.4771H86.4348V12.1703ZM71.1875 4.58791V0.384617H86.4348V4.58791H81.4771H76.5194V8.1044L71.1875 4.58791Z" fill="#3E8BFF"/>
<path fill-rule="evenodd" clip-rule="evenodd" d="M103.206 4.22658L94.3445 19.5749L94.261 19.5267L94.3167 19.6231H89.8721L100.984 0.377411L103.206 4.22658Z" fill="#3E8BFF"/>
<path fill-rule="evenodd" clip-rule="evenodd" d="M98.7609 4.22625L107.622 19.5746L107.706 19.5263L107.65 19.6228H112.095L100.983 0.377075L98.7609 4.22625Z" fill="#3E8BFF"/>
<path fill-rule="evenodd" clip-rule="evenodd" d="M112.095 0.377075L112.088 8.07532L105.407 4.2262L112.095 0.377075Z" fill="#3E8BFF"/>
<path fill-rule="evenodd" clip-rule="evenodd" d="M108.423 3.67187L111.648 4.22634L102.759 19.6229H101.867C102.77 19.6229 102.759 19.6229 102.759 19.6229H99.207L108.417 3.67053L99.207 19.6229L108.423 3.67187ZM111.648 4.22634L108.417 3.67053L111.648 4.22634Z" fill="#3E8BFF"/>
<path d="M121.439 4.6978V19.6154H126.878V4.6978H132.757V0.384613H115.532V4.6978H121.439Z" fill="#3E8BFF"/>
<path d="M136.195 0.384613V19.6154H141.635V0.384613H136.195Z" fill="#3E8BFF"/>
<path d="M150.265 18.7088C151.885 19.5879 153.726 20 155.759 20C157.792 20 159.605 19.5879 161.226 18.7088C162.847 17.8571 164.111 16.6758 165.045 15.1374C165.979 13.6264 166.446 11.9231 166.446 10C166.446 8.1044 165.979 6.4011 165.045 4.86264C164.111 3.35165 162.847 2.17033 161.226 1.29121C159.605 0.439561 157.792 0 155.759 0C153.726 0 151.885 0.439561 150.265 1.29121C148.644 2.17033 147.38 3.35165 146.446 4.86264C145.512 6.4011 145.072 8.1044 145.072 10C145.072 11.9231 145.512 13.6264 146.446 15.1374C147.38 16.6758 148.644 17.8571 150.265 18.7088ZM158.396 14.8077C157.6 15.2747 156.721 15.4945 155.759 15.4945C154.77 15.4945 153.891 15.2747 153.122 14.8077C152.325 14.3681 151.693 13.7088 151.254 12.8846C150.787 12.0604 150.567 11.0989 150.567 10C150.567 8.92857 150.787 7.96703 151.254 7.14286C151.693 6.31868 152.325 5.65934 153.122 5.19231C153.891 4.75275 154.77 4.5055 155.759 4.5055C156.721 4.5055 157.6 4.75275 158.396 5.19231C159.166 5.65934 159.798 6.31868 160.265 7.14286C160.704 7.96703 160.951 8.92857 160.951 10C160.951 11.0989 160.704 12.0604 160.265 12.8846C159.798 13.7088 159.166 14.3681 158.396 14.8077Z" fill="#3E8BFF"/>
<path d="M169.884 19.6154H175.213V9.36813L183.702 19.6154H188.181V0.384613H182.851V10.6044V10.6319L174.362 0.384613H169.884V19.6154Z" fill="#3E8BFF"/>
</svg>
